<svg width="43" height="43" viewBox="0 0 43 43" fill="none" xmlns="http://www.w3.org/2000/svg">
<path d="M42.7728 19.0859C41.9207 16.6433 38.8533 14.7688 36.07 14.5984C36.0132 14.3712 35.8996 14.144 35.8428 13.9736C35.0475 11.8719 34.0819 9.94056 32.6618 8.23647C31.2417 6.47557 29.5944 4.94188 27.7767 3.57861C25.959 2.15853 23.9709 0.852056 21.4148 0.284024C21.2443 0.227221 21.1307 0.227221 20.9035 0.170417C20.3355 0.0568111 19.7107 0.0568111 19.029 0.284024C16.6433 1.07927 14.7688 4.08984 14.5416 6.93C14.3144 6.9868 14.0871 7.0436 13.9167 7.15721C11.815 7.95245 9.94051 8.8613 8.17961 10.2246C6.47552 11.5879 4.88503 13.292 3.46495 15.1665C2.15848 16.9274 0.795201 18.9155 0.22717 21.5852C0.170366 21.8124 0.170366 21.8692 0.113563 22.0964C-4.31053e-05 22.6645 -4.31053e-05 23.3461 0.22717 24.0278C1.02241 26.4703 4.03298 28.4016 6.87314 28.572C6.92994 28.7992 6.98675 29.0264 7.10035 29.2536C7.8388 31.4122 8.74765 33.3435 10.1109 35.0476C11.4742 36.8085 13.1783 38.3421 15.0528 39.7054C16.9273 41.0687 18.9722 42.3184 21.642 42.8864C21.8692 42.9432 21.926 42.9432 22.1532 43C22.7212 43.1136 23.4029 43.0568 24.0845 42.8296C26.5838 41.9776 28.4583 38.9102 28.6856 36.1268C28.9128 36.07 29.14 35.9564 29.3672 35.8996C31.5257 35.1044 33.457 34.1387 35.2179 32.7754C36.9788 31.3554 38.5125 29.7649 39.819 27.8904C41.1823 26.0727 42.4319 24.0846 42.8864 21.5284C42.9432 21.358 42.9432 21.2444 43 21.0172C43.0568 20.3923 43 19.7675 42.7728 19.0859ZM31.6961 28.6856C31.0145 30.3329 29.992 31.8098 28.5152 33.2867C28.4583 33.3435 28.3447 33.4571 28.2879 33.5139C27.4359 31.2418 25.3342 30.5601 23.4029 31.469C22.0964 32.0938 20.6195 32.4914 19.0858 32.4914C17.5521 32.4914 15.848 32.2074 14.2576 31.5826C12.6103 30.9009 11.1334 29.8785 9.7133 28.4016C9.6565 28.3448 9.54289 28.2312 9.48609 28.1744C11.7582 27.3223 12.5535 25.2774 11.6446 23.3461C11.0198 22.0396 10.679 20.5628 10.679 19.0291C10.679 17.4954 11.0198 15.8481 11.6446 14.2008C12.3262 12.5535 13.3487 11.0766 14.7688 9.65655C14.8256 9.59974 14.9392 9.48614 14.996 9.42934C15.848 11.7015 17.8362 12.4399 19.7107 11.5311C21.0171 10.9062 22.4372 10.5654 23.9141 10.5654C25.391 10.5654 27.0951 10.8494 28.6856 11.5311C30.2761 12.2127 31.8097 13.2351 33.2866 14.712C33.3434 14.7688 33.457 14.8824 33.5138 14.9392C31.2985 15.7913 30.5601 17.7794 31.5257 19.7107C32.2074 21.0172 32.5482 22.4373 32.605 23.9709C32.6618 25.391 32.3778 27.0951 31.6961 28.6856Z" fill="url(#paint0_linear_2_4)"/>
<defs>
<linearGradient id="paint0_linear_2_4" x1="21.5126" y1="7.97123e-06" x2="21.5126" y2="43.0236" gradientUnits="userSpaceOnUse">
<stop stop-color="#652574"/>
<stop offset="0.3631" stop-color="#652574"/>
<stop offset="0.7487" stop-color="#AA3C17"/>
<stop offset="1" stop-color="#ED6A1B"/>
</linearGradient>
</defs>
</svg>
