<svg width="38" height="38" viewBox="0 0 38 38" fill="none" xmlns="http://www.w3.org/2000/svg">
<rect width="37.3667" height="37.3667" rx="18.6833" fill="#1E1E1E"/>
<path d="M13.0416 25.875C13.0416 25.875 16.25 24.5 17.1666 23.5833C18.0833 22.6667 15.3333 22.6667 15.3333 18.0833C15.3333 13.5 19 13.5 19 13.5C19 13.5 22.6666 13.5 22.6666 18.0833C22.6666 22.6667 19.9166 22.6667 20.8333 23.5833C21.75 24.5 24.9583 25.875 24.9583 25.875" stroke="white" stroke-width="0.916667" stroke-linecap="round"/>
<path fill-rule="evenodd" clip-rule="evenodd" d="M19 28.1667C24.0627 28.1667 28.1667 24.0626 28.1667 19C28.1667 13.9374 24.0627 9.83333 19 9.83333C13.9374 9.83333 9.83337 13.9374 9.83337 19C9.83337 24.0626 13.9374 28.1667 19 28.1667Z" stroke="white" stroke-width="0.916667"/>
</svg>
