<svg width="26" height="26" viewBox="0 0 26 26" fill="none" xmlns="http://www.w3.org/2000/svg">
<path d="M25.8627 11.5403C25.3475 10.0634 23.4928 8.92999 21.8099 8.82695C21.7755 8.68957 21.7068 8.55219 21.6725 8.44915C21.1917 7.17834 20.6078 6.01057 19.7491 4.98019C18.8905 3.91546 17.8944 2.98812 16.7954 2.16381C15.6963 1.30516 14.4942 0.515196 12.9486 0.171735C12.8456 0.137389 12.7769 0.137389 12.6395 0.103043C12.296 0.0343509 11.9182 0.0343509 11.5061 0.171735C10.0635 0.652581 8.9301 2.47292 8.79271 4.19023C8.65533 4.22458 8.51795 4.25892 8.41491 4.32761C7.1441 4.80846 6.01068 5.358 4.94595 6.1823C3.91557 7.00661 2.95388 8.03699 2.09522 9.17041C1.30526 10.2351 0.480956 11.4373 0.137495 13.0515C0.103149 13.1889 0.103149 13.2233 0.0688024 13.3606C0.000110202 13.7041 0.000110202 14.1163 0.137495 14.5284C0.61834 16.0053 2.43868 17.1731 4.15599 17.2761C4.19034 17.4135 4.22468 17.5509 4.29337 17.6882C4.73987 18.9934 5.28941 20.1612 6.11372 21.1916C6.93802 22.2563 7.96841 23.1836 9.10183 24.0079C10.2353 24.8322 11.4717 25.5879 13.086 25.9313C13.2234 25.9657 13.2577 25.9657 13.3951 26C13.7386 26.0687 14.1507 26.0344 14.5629 25.897C16.0741 25.3818 17.2075 23.5271 17.3449 21.8441C17.4823 21.8098 17.6197 21.7411 17.757 21.7067C19.0622 21.2259 20.23 20.642 21.2947 19.8177C22.3594 18.9591 23.2868 17.9974 24.0767 16.8639C24.901 15.7649 25.6567 14.5628 25.9314 13.0172C25.9658 12.9141 25.9658 12.8454 26.0001 12.7081C26.0345 12.3303 26.0001 11.9524 25.8627 11.5403ZM19.1652 17.3448C18.7531 18.3408 18.1349 19.2338 17.2419 20.1268C17.2075 20.1612 17.1388 20.2299 17.1045 20.2642C16.5893 18.8904 15.3185 18.4782 14.1507 19.0277C13.3607 19.4056 12.4677 19.646 11.5404 19.646C10.6131 19.646 9.58267 19.4742 8.62098 19.0964C7.62495 18.6843 6.73195 18.0661 5.87329 17.1731C5.83895 17.1387 5.77026 17.07 5.73591 17.0357C7.10976 16.5205 7.5906 15.284 7.04106 14.1163C6.66326 13.3263 6.45718 12.4333 6.45718 11.5059C6.45718 10.5786 6.66326 9.58257 7.04106 8.58653C7.45322 7.59049 8.07145 6.69749 8.9301 5.83884C8.96444 5.8045 9.03314 5.7358 9.06748 5.70146C9.58267 7.0753 10.7848 7.5218 11.9182 6.97226C12.7082 6.59446 13.5668 6.38838 14.4598 6.38838C15.3528 6.38838 16.3832 6.56011 17.3449 6.97226C18.3066 7.38442 19.2339 8.00265 20.1269 8.89565C20.1613 8.92999 20.23 8.99868 20.2643 9.03303C18.9248 9.54822 18.4783 10.7503 19.0622 11.9181C19.4744 12.7081 19.6804 13.5667 19.7148 14.4941C19.7491 15.3527 19.5774 16.3831 19.1652 17.3448Z" fill="white"/>
</svg>
